if (_typeface_js && _typeface_js.loadFace) _typeface_js.loadFace({"glyphs":{"S":{"x_min":58,"x_max":744,"ha":808,"o":"m 721 669 l 629 669 q 583 801 629 754 q 395 868 518 868 q 227 817 288 868 q 169 690 169 769 q 203 594 169 632 q 323 540 237 558 l 496 503 q 679 422 622 476 q 744 257 744 358 q 657 59 744 137 q 404 -22 564 -22 q 115 99 209 -22 q 58 306 58 172 l 150 306 q 205 133 150 196 q 409 57 272 57 q 586 109 521 57 q 651 250 651 162 q 602 363 651 323 q 460 420 558 398 l 293 456 q 135 532 186 479 q 77 689 77 591 q 166 880 77 813 q 397 947 255 947 q 669 836 585 947 q 721 669 721 772 "},"¦":{"x_min":302,"x_max":392,"ha":694,"o":"m 302 926 l 392 926 l 392 466 l 302 466 l 302 926 m 302 213 l 392 213 l 392 -231 l 302 -231 l 302 213 "},"/":{"x_min":55.609375,"x_max":487.609375,"ha":545,"o":"m 487 944 l 137 0 l 55 0 l 404 944 l 487 944 "},"y":{"x_min":9.765625,"x_max":605.1875,"ha":614,"o":"m 9 672 l 99 672 l 258 253 q 308 91 295 156 q 361 254 321 157 l 517 672 l 605 672 l 308 -87 q 245 -195 276 -167 q 140 -231 207 -231 q 83 -224 116 -231 l 83 -152 q 129 -157 111 -157 q 194 -131 170 -157 q 228 -70 211 -112 l 264 18 l 9 672 "},"Á":{"x_min":18.3125,"x_max":838.890625,"ha":857,"o":"m 630 292 l 222 292 l 113 0 l 18 0 l 377 926 l 473 926 l 838 0 l 743 0 l 630 292 m 600 365 l 422 830 l 250 365 l 600 365 m 371 998 l 466 1169 l 577 1169 l 438 998 l 371 998 "},"":{"x_min":27,"x_max":572,"ha":673,"o":"m 315 672 l 315 605 l 211 605 l 211 130 q 218 85 211 96 q 256 69 228 69 q 315 77 279 69 l 315 1 q 233 -10 265 -10 q 145 22 173 -10 q 122 122 122 49 l 122 605 l 27 605 l 27 672 l 122 672 l 122 867 l 211 867 l 211 672 l 315 672 m 453 926 l 572 926 l 572 775 q 453 603 572 624 l 453 666 q 501 713 487 676 q 509 787 509 732 l 453 787 l 453 926 "},"g":{"x_min":64,"x_max":662,"ha":764,"o":"m 583 672 l 662 672 l 662 75 q 636 -90 662 -36 q 510 -204 599 -167 q 365 -231 446 -231 q 156 -160 228 -231 q 105 -51 110 -116 l 193 -51 q 367 -157 205 -157 q 531 -102 479 -157 q 583 63 583 -47 l 583 124 q 360 11 491 11 q 138 116 221 11 q 64 347 64 210 q 165 610 64 513 q 364 690 247 690 q 511 648 449 690 q 583 573 547 624 l 583 672 m 367 616 q 211 542 273 616 q 152 350 152 472 q 211 158 152 228 q 367 84 272 84 q 524 158 462 84 q 583 346 583 228 q 524 542 583 472 q 367 616 461 616 "},"²":{"x_min":373,"x_max":581,"ha":695,"o":"m 448 0 l 500 0 q 423 -115 423 -57 q 463 -177 423 -157 q 519 -189 488 -189 q 581 -176 544 -189 l 581 -218 q 505 -233 538 -233 q 405 -199 442 -233 q 373 -123 373 -169 q 448 0 373 -59 "},"–":{"x_min":85,"x_max":691,"ha":777,"o":"m 691 382 l 691 303 l 85 303 l 85 382 l 691 382 "},"ë":{"x_min":64,"x_max":650,"ha":714,"o":"m 650 322 l 149 322 q 184 160 149 222 q 262 82 213 109 q 367 55 310 55 q 565 210 513 55 l 650 210 q 364 -18 578 -18 q 192 34 266 -18 q 87 180 118 85 q 64 332 64 249 q 138 582 64 484 q 363 691 220 691 q 599 563 522 691 q 650 345 650 479 q 650 322 650 338 m 563 389 q 539 509 563 459 q 470 587 515 560 q 366 617 425 617 q 230 564 286 617 q 151 389 168 507 l 563 389 m 287 917 l 287 797 l 199 797 l 199 917 l 287 917 m 516 917 l 516 797 l 427 797 l 427 917 l 516 917 "},"Î":{"x_min":-38.875,"x_max":353.203125,"ha":315,"o":"m 204 926 l 204 0 l 111 0 l 111 926 l 204 926 m 204 1171 l 353 996 l 258 996 l 156 1118 l 54 996 l -38 996 l 108 1171 l 204 1171 "},"e":{"x_min":64,"x_max":650,"ha":714,"o":"m 650 322 l 149 322 q 184 160 149 222 q 262 82 213 109 q 367 55 310 55 q 565 210 513 55 l 650 210 q 364 -18 578 -18 q 192 34 266 -18 q 87 180 118 85 q 64 332 64 249 q 138 582 64 484 q 363 691 220 691 q 599 563 522 691 q 650 345 650 479 q 650 322 650 338 m 563 389 q 539 509 563 459 q 470 587 515 560 q 366 617 425 617 q 230 564 286 617 q 151 389 168 507 l 563 389 "},"Ã":{"x_min":18.3125,"x_max":838.890625,"ha":857,"o":"m 630 292 l 222 292 l 113 0 l 18 0 l 377 926 l 473 926 l 838 0 l 743 0 l 630 292 m 600 365 l 422 830 l 250 365 l 600 365 m 636 1169 q 585 1065 621 1106 q 428 998 525 998 q 263 1076 324 998 q 220 1169 233 1113 l 291 1169 q 428 1071 335 1071 q 565 1169 522 1071 l 636 1169 "},"J":{"x_min":14,"x_max":529,"ha":640,"o":"m 436 926 l 529 926 l 529 276 q 271 -15 529 -15 q 14 277 14 -15 l 14 304 l 107 304 l 107 277 q 142 125 107 177 q 271 64 184 64 q 400 125 358 64 q 436 277 436 177 l 436 926 "},"»":{"x_min":79,"x_max":556,"ha":621,"o":"m 79 572 l 304 380 l 304 306 l 79 114 l 79 213 l 236 343 l 79 473 l 79 572 m 331 570 l 556 379 l 556 304 l 331 112 l 331 212 l 488 341 l 331 471 l 331 570 "},"‐":{"x_min":0,"x_max":336,"ha":336,"o":"m 336 382 l 336 303 l 0 303 l 0 382 l 336 382 "},"©":{"x_min":67,"x_max":1023,"ha":1090,"o":"m 798 411 q 748 266 798 326 q 551 179 676 179 q 344 273 420 179 q 284 463 284 348 q 355 666 284 587 q 553 750 430 750 q 735 678 665 750 q 793 560 785 627 l 743 560 q 699 642 732 609 q 552 697 643 697 q 393 620 451 697 q 345 463 345 558 q 389 310 345 370 q 551 232 448 232 q 707 300 649 232 q 752 411 743 342 l 798 411 m 551 941 q 795 870 679 941 q 970 679 909 799 q 1023 462 1023 577 q 952 212 1023 327 q 762 36 882 97 q 545 -16 659 -16 q 296 54 411 -16 q 119 245 180 125 q 67 461 67 347 q 137 713 67 597 q 328 888 206 826 q 551 941 430 941 m 551 894 q 244 767 369 894 q 151 628 184 708 q 119 461 119 548 q 181 236 119 341 q 351 77 244 133 q 545 31 443 31 q 768 94 665 31 q 924 266 870 158 q 971 462 971 358 q 908 688 971 584 q 738 847 847 790 q 551 894 648 894 "},"˘":{"x_min":139.03125,"x_max":555.421875,"ha":694,"o":"m 555 943 q 504 838 540 879 q 347 771 444 771 q 181 849 242 771 q 139 943 152 886 l 210 943 q 347 844 254 844 q 484 943 440 844 l 555 943 "},"ò":{"x_min":102,"x_max":615,"ha":717,"o":"m 102 672 l 185 672 l 185 576 q 252 650 218 626 q 393 690 309 690 q 570 620 509 690 q 607 543 599 586 q 615 458 615 505 l 615 0 l 532 0 l 532 439 q 519 537 532 507 q 384 617 489 617 q 238 557 296 617 q 185 394 185 502 l 185 0 l 102 0 l 102 672 m 310 769 l 162 945 l 256 945 l 358 821 l 461 945 l 554 945 l 407 769 l 310 769 "},"^":{"x_min":48.15625,"x_max":646.96875,"ha":694,"o":"m 134 526 l 48 526 l 295 928 l 399 928 l 646 526 l 559 526 l 346 865 l 134 526 "},"«":{"x_min":65,"x_max":542,"ha":621,"o":"m 542 112 l 317 304 l 317 379 l 542 570 l 542 471 l 384 341 l 542 212 l 542 112 m 290 114 l 65 306 l 65 380 l 290 572 l 290 473 l 132 343 l 290 213 l 290 114 "},"D":{"x_min":111,"x_max":849,"ha":921,"o":"m 111 0 l 111 926 l 449 926 q 690 864 604 926 q 827 645 787 794 q 849 466 849 564 q 752 131 849 261 q 616 27 696 55 q 429 0 540 0 l 111 0 m 204 79 l 409 79 q 618 122 553 79 q 757 464 757 215 q 675 760 757 663 q 602 818 642 799 q 443 847 540 847 l 204 847 l 204 79 "},"ÿ":{"x_min":303,"x_max":391.15625,"ha":694,"o":"m 391 917 l 391 797 l 303 797 l 303 917 l 391 917 "},"":{"x_min":39,"x_max":758,"ha":795,"o":"m 742 926 l 742 847 l 162 79 l 758 79 l 758 0 l 39 0 l 39 56 l 632 847 l 106 847 l 106 926 l 742 926 m 340 998 l 434 1169 l 546 1169 l 407 998 l 340 998 "},"í":{"x_min":76.921875,"x_max":303,"ha":287,"o":"m 185 672 l 185 0 l 102 0 l 102 672 l 185 672 m 183 945 l 303 945 l 148 769 l 76 769 l 183 945 "},"w":{"x_min":9.5,"x_max":908.75,"ha":918,"o":"m 301 0 l 217 0 l 9 672 l 101 672 l 234 217 q 259 107 246 175 q 285 217 272 174 l 415 672 l 501 672 l 624 217 q 650 107 638 169 q 675 217 663 182 l 815 672 l 908 672 l 684 0 l 604 0 l 485 432 q 455 560 467 500 q 423 432 439 488 l 301 0 "},"$":{"x_min":81,"x_max":697,"ha":778,"o":"m 421 864 l 421 515 q 452 508 433 512 q 628 434 577 478 q 697 259 697 376 q 554 18 697 87 q 421 -7 500 -7 l 421 -130 l 355 -130 l 355 -7 q 183 44 254 -7 q 81 274 81 121 l 171 274 q 355 62 171 81 l 355 445 l 350 446 q 187 503 230 473 q 127 579 148 531 q 105 691 105 630 q 157 849 105 788 q 355 935 216 919 l 355 1055 l 421 1055 l 421 934 q 575 884 508 934 q 667 703 655 822 l 584 703 q 421 864 567 851 m 355 864 q 195 697 195 842 q 252 568 195 607 q 350 530 280 549 l 355 529 l 355 864 m 421 62 q 508 85 479 71 q 583 156 558 109 q 607 255 607 201 q 557 378 607 334 q 446 425 526 405 q 421 431 433 429 l 421 62 "},"\\":{"x_min":57.640625,"x_max":489.640625,"ha":545,"o":"m 57 944 l 139 944 l 489 0 l 406 0 l 57 944 "},"Ì":{"x_min":111,"x_max":742.46875,"ha":799,"o":"m 730 926 l 730 847 l 204 847 l 204 512 l 687 512 l 687 439 l 204 439 l 204 79 l 742 79 l 742 0 l 111 0 l 111 926 l 730 926 m 351 996 l 204 1171 l 298 1171 l 399 1048 l 502 1171 l 595 1171 l 448 996 l 351 996 "},"µ":{"x_min":76,"x_max":618,"ha":695,"o":"m 76 -229 l 76 667 l 154 667 l 154 283 q 163 175 154 209 q 250 70 183 106 q 338 48 291 48 q 491 128 436 48 q 540 298 540 201 l 540 667 l 618 667 l 618 0 l 540 0 l 540 134 q 480 37 514 71 q 337 -19 422 -19 q 202 27 257 -19 q 154 88 179 47 l 154 -229 l 76 -229 "},"Ç":{"x_min":72,"x_max":871.96875,"ha":925,"o":"m 859 664 l 762 664 q 701 780 745 734 q 486 868 620 868 q 305 812 382 868 q 192 643 228 755 q 165 458 165 560 q 244 173 165 282 q 352 86 285 117 q 484 57 412 57 q 728 186 642 57 q 781 332 768 246 l 871 332 q 800 135 854 213 q 482 -22 690 -22 q 166 128 276 -22 q 72 462 72 257 q 178 809 72 680 q 490 947 292 947 q 775 830 669 947 q 859 664 838 763 m 414 -47 l 520 -47 l 520 -141 q 489 -249 520 -216 q 414 -289 462 -276 l 414 -233 q 463 -158 463 -217 l 414 -158 l 414 -47 "},"’":{"x_min":102.0625,"x_max":221,"ha":322,"o":"m 102 926 l 221 926 l 221 775 q 102 603 221 624 l 102 666 q 150 713 136 675 q 157 787 157 733 l 102 787 l 102 926 "},"-":{"x_min":0,"x_max":336,"ha":336,"o":"m 336 382 l 336 303 l 0 303 l 0 382 l 336 382 "},"Q":{"x_min":72,"x_max":930,"ha":1003,"o":"m 790 90 l 908 0 l 860 -60 l 729 42 q 501 -22 627 -22 q 179 124 299 -22 q 72 462 72 255 q 179 801 72 669 q 501 947 299 947 q 822 801 702 947 q 930 462 930 670 q 790 90 930 225 m 721 143 q 837 462 837 251 q 753 747 837 639 q 632 840 706 808 q 501 868 569 868 q 316 811 398 868 q 165 462 165 707 q 248 177 165 285 q 369 84 295 116 q 500 57 432 57 q 659 97 584 57 l 563 172 l 607 230 l 721 143 "},"M":{"x_min":111,"x_max":963,"ha":1074,"o":"m 578 0 l 493 0 l 195 803 q 195 305 195 609 l 195 0 l 111 0 l 111 926 l 228 926 l 537 99 l 849 926 l 963 926 l 963 0 l 878 0 l 878 245 q 878 794 878 653 l 578 0 "},"C":{"x_min":72,"x_max":872.328125,"ha":925,"o":"m 859 664 l 763 664 q 702 780 745 734 q 487 868 620 868 q 306 812 382 868 q 192 643 228 755 q 165 458 165 560 q 245 173 165 282 q 352 86 285 117 q 485 57 412 57 q 728 186 642 57 q 781 332 768 246 l 872 332 q 801 135 854 213 q 483 -22 691 -22 q 166 128 276 -22 q 72 462 72 257 q 178 809 72 680 q 491 947 293 947 q 776 830 669 947 q 859 664 838 763 "},"!":{"x_min":111,"x_max":222,"ha":333,"o":"m 206 231 l 127 231 l 127 618 l 127 926 l 206 926 l 206 618 l 206 231 m 222 120 l 222 0 l 111 0 l 111 120 l 222 120 "},"ç":{"x_min":64,"x_max":641.09375,"ha":688,"o":"m 637 463 l 553 463 q 504 563 541 526 q 366 616 451 616 q 199 533 257 616 q 147 340 147 458 q 198 143 147 219 q 274 77 227 102 q 369 56 318 56 q 525 136 471 56 q 560 235 550 174 l 641 235 q 572 72 624 135 q 365 -19 496 -19 q 139 83 221 -19 q 64 333 64 179 q 140 582 64 486 q 371 690 226 690 q 580 599 504 690 q 637 463 626 544 m 314 -46 l 420 -46 l 420 -140 q 389 -248 420 -215 q 314 -288 362 -275 l 314 -232 q 363 -157 363 -216 l 314 -157 l 314 -46 "},"―":{"x_min":0,"x_max":899,"ha":899,"o":"m 899 382 l 899 303 l 0 303 l 0 382 l 899 382 "},"È":{"x_min":72,"x_max":872.328125,"ha":925,"o":"m 859 664 l 763 664 q 702 780 745 734 q 487 868 620 868 q 306 812 382 868 q 192 643 228 755 q 165 458 165 560 q 245 173 165 282 q 352 86 285 117 q 485 57 412 57 q 728 186 642 57 q 781 332 768 246 l 872 332 q 801 135 854 213 q 483 -22 691 -22 q 166 128 276 -22 q 72 462 72 257 q 178 809 72 680 q 491 947 293 947 q 776 830 669 947 q 859 664 838 763 m 414 996 l 266 1171 l 360 1171 l 462 1048 l 565 1171 l 658 1171 l 510 996 l 414 996 "},"{":{"x_min":200,"x_max":499,"ha":694,"o":"m 293 343 q 355 278 335 322 q 370 184 370 245 l 370 -43 q 382 -132 370 -114 q 499 -183 408 -183 l 499 -258 q 484 -258 489 -258 q 365 -243 400 -258 q 288 -143 305 -217 q 280 -50 280 -106 l 280 177 q 255 277 280 247 q 200 311 235 301 l 200 378 q 257 415 235 388 q 279 509 279 441 l 279 759 q 317 897 279 854 q 390 939 347 931 q 482 946 432 946 q 499 946 488 946 l 499 867 q 406 845 440 867 q 374 795 381 827 q 368 735 368 773 l 368 498 q 350 394 368 427 q 293 343 333 363 "},"X":{"x_min":13.5625,"x_max":748.703125,"ha":763,"o":"m 430 466 l 748 0 l 640 0 l 381 399 l 122 0 l 13 0 l 333 466 l 22 926 l 131 926 l 383 533 l 640 926 l 745 926 l 430 466 "},"ô":{"x_min":64,"x_max":682.15625,"ha":746,"o":"m 372 690 q 594 595 509 690 q 682 331 682 498 q 594 76 682 173 q 373 -19 510 -19 q 151 76 236 -19 q 64 335 64 173 q 151 595 64 497 q 372 690 235 690 m 372 617 q 251 579 305 617 q 168 454 193 537 q 152 335 152 399 q 205 140 152 218 q 290 71 236 94 q 373 54 328 54 q 494 92 441 54 q 577 217 551 134 q 594 332 594 272 q 541 531 594 454 q 372 617 482 617 m 420 945 l 568 769 l 474 769 l 372 891 l 270 769 l 177 769 l 324 945 l 420 945 "},"¼":{"x_min":111,"x_max":650.234375,"ha":673,"o":"m 204 926 l 204 79 l 650 79 l 650 0 l 111 0 l 111 926 l 204 926 m 370 926 l 489 926 l 489 775 q 370 603 489 624 l 370 666 q 418 713 404 675 q 426 787 426 733 l 370 787 l 370 926 "},"#":{"x_min":84.765625,"x_max":747.34375,"ha":831,"o":"m 531 326 l 491 43 l 440 43 l 480 326 l 312 326 l 272 43 l 221 43 l 261 326 l 84 326 l 91 375 l 268 375 l 290 535 l 113 535 l 121 585 l 297 585 l 334 844 l 385 844 l 348 585 l 516 585 l 552 844 l 603 844 l 566 585 l 747 585 l 740 535 l 560 535 l 537 375 l 717 375 l 710 326 l 531 326 m 509 535 l 341 535 l 319 375 l 486 375 l 509 535 "},"Ê":{"x_min":91,"x_max":832,"ha":792,"o":"m 752 0 q 674 -108 674 -54 q 701 -164 674 -141 q 766 -183 726 -183 q 832 -168 794 -183 l 832 -216 q 748 -233 785 -233 q 650 -200 687 -233 q 615 -123 615 -170 q 698 0 615 -56 l 91 0 l 91 926 l 745 926 l 745 852 l 181 852 l 181 518 l 707 518 l 707 446 l 181 446 l 181 76 l 752 76 l 752 0 "},")":{"x_min":88.140625,"x_max":364.15625,"ha":436,"o":"m 174 -227 l 109 -227 q 276 323 276 11 q 88 926 276 662 l 159 926 q 275 732 231 824 q 364 340 364 545 q 174 -227 364 23 "},"Å":{"x_min":111,"x_max":650.234375,"ha":673,"o":"m 204 926 l 204 79 l 650 79 l 650 0 l 111 0 l 111 926 l 204 926 m 279 998 l 374 1169 l 486 1169 l 346 998 l 279 998 "},"ø":{"x_min":21.296875,"x_max":412.859375,"ha":434,"o":"m 102 672 l 182 672 l 182 551 q 267 654 219 626 q 372 681 311 681 q 399 679 384 681 l 399 596 q 380 596 389 596 q 229 515 286 596 q 185 353 185 453 l 185 0 l 102 0 l 102 672 m 169 769 l 21 945 l 115 945 l 216 821 l 319 945 l 412 945 l 265 769 l 169 769 "},"â":{"x_min":59,"x_max":681.28125,"ha":713,"o":"m 180 467 l 91 467 q 145 619 91 566 q 358 690 216 690 q 550 632 483 690 q 606 488 606 584 l 606 111 q 641 54 606 54 q 681 62 654 54 l 681 -2 q 618 -12 643 -12 q 522 82 522 -12 q 522 98 522 87 q 279 -19 438 -19 q 126 24 185 -19 q 59 174 59 76 q 120 319 59 267 q 269 376 166 359 l 466 408 q 512 423 504 414 q 520 475 520 433 q 493 572 520 542 q 352 616 453 616 q 203 558 241 616 q 180 467 180 524 m 523 346 l 283 306 q 147 177 147 282 q 186 84 147 119 q 293 50 226 50 q 433 92 373 50 q 523 271 523 153 l 523 346 m 403 945 l 551 769 l 457 769 l 355 891 l 253 769 l 160 769 l 308 945 l 403 945 "},"}":{"x_min":195,"x_max":495,"ha":694,"o":"m 402 345 q 339 410 359 366 q 325 504 325 442 l 325 732 q 312 820 325 803 q 195 871 286 871 l 195 946 q 208 946 203 946 q 329 931 293 946 q 406 831 389 905 q 415 737 415 794 l 415 511 q 438 411 415 441 q 495 377 459 386 l 495 310 q 437 273 459 301 q 415 179 415 246 l 415 -71 q 376 -209 415 -165 q 303 -250 346 -242 q 211 -258 261 -258 q 195 -258 205 -258 l 195 -179 q 287 -156 254 -179 q 320 -107 313 -138 q 326 -46 326 -84 l 326 190 q 343 293 326 261 q 402 345 361 324 "},"‰":{"x_min":46,"x_max":1229,"ha":1275,"o":"m 200 931 q 355 689 355 931 q 325 533 355 594 q 200 454 287 454 q 75 532 112 454 q 46 692 46 594 q 75 852 46 792 q 200 931 113 931 m 200 875 q 115 692 115 875 q 200 510 115 510 q 286 690 286 510 q 200 875 286 875 m 762 926 l 178 0 l 110 0 l 696 926 l 762 926 m 672 472 q 827 230 827 472 q 797 73 827 134 q 672 -5 760 -5 q 547 73 584 -5 q 518 233 518 135 q 547 393 518 333 q 672 472 585 472 m 672 416 q 587 233 587 416 q 672 51 587 51 q 758 231 758 51 q 672 416 758 416 m 1074 472 q 1229 230 1229 472 q 1199 74 1229 135 q 1074 -5 1161 -5 q 949 73 986 -5 q 920 233 920 135 q 949 393 920 333 q 1074 472 987 472 m 1074 416 q 989 233 989 416 q 1074 51 989 51 q 1160 231 1160 51 q 1074 416 1160 416 "},"Ä":{"x_min":17.9375,"x_max":839.0625,"ha":857,"o":"m 630 292 l 222 292 l 112 0 l 17 0 l 376 926 l 473 926 l 839 0 l 743 0 l 630 292 m 600 365 l 422 830 l 249 365 l 600 365 m 320 1144 l 320 1024 l 218 1024 l 218 1144 l 320 1144 m 639 1144 l 639 1024 l 537 1024 l 537 1144 l 639 1144 "},"¸":{"x_min":294,"x_max":400,"ha":695,"o":"m 294 -46 l 400 -46 l 400 -140 q 369 -248 400 -215 q 294 -288 342 -275 l 294 -232 q 343 -157 343 -216 l 294 -157 l 294 -46 "},"a":{"x_min":59,"x_max":681.28125,"ha":713,"o":"m 180 467 l 91 467 q 145 619 91 566 q 358 690 216 690 q 550 632 483 690 q 606 488 606 584 l 606 111 q 641 54 606 54 q 681 62 654 54 l 681 -2 q 618 -12 643 -12 q 522 82 522 -12 q 522 98 522 87 q 279 -19 438 -19 q 126 24 185 -19 q 59 174 59 76 q 120 319 59 267 q 269 376 166 359 l 466 408 q 512 423 504 414 q 520 475 520 433 q 493 572 520 542 q 352 616 453 616 q 203 558 241 616 q 180 467 180 524 m 523 346 l 283 306 q 147 177 147 282 q 186 84 147 119 q 293 50 226 50 q 433 92 373 50 q 523 271 523 153 l 523 346 "},"—":{"x_min":0,"x_max":899,"ha":899,"o":"m 899 382 l 899 303 l 0 303 l 0 382 l 899 382 "},"=":{"x_min":35,"x_max":659,"ha":694,"o":"m 35 590 l 659 590 l 659 540 l 35 540 l 35 590 m 35 397 l 659 397 l 659 347 l 35 347 l 35 397 "},"N":{"x_min":111,"x_max":822,"ha":933,"o":"m 822 0 l 726 0 l 191 814 q 191 554 191 728 l 191 441 l 191 0 l 111 0 l 111 926 l 207 926 l 741 115 q 741 496 741 282 l 741 926 l 822 926 l 822 0 "},"ú":{"x_min":102,"x_max":615,"ha":717,"o":"m 615 0 l 532 0 l 532 95 q 464 21 498 45 q 323 -19 407 -19 q 146 51 207 -19 q 109 128 117 85 q 102 213 102 166 l 102 672 l 185 672 l 185 232 q 197 134 185 164 q 255 71 213 92 q 332 54 289 54 q 478 114 420 54 q 532 277 532 169 l 532 672 l 615 672 l 615 0 m 398 945 l 518 945 l 363 769 l 291 769 l 398 945 "},"2":{"x_min":93,"x_max":686,"ha":778,"o":"m 682 79 l 682 0 l 93 0 q 93 27 93 19 q 154 232 93 145 q 259 332 195 289 q 389 414 313 370 q 540 527 500 480 q 589 667 589 583 q 540 801 589 753 q 403 850 490 850 q 209 626 209 850 l 113 626 q 172 830 113 752 q 407 935 250 935 q 602 869 526 935 q 686 672 686 796 q 612 478 686 559 q 440 349 562 422 q 294 257 327 282 q 185 79 200 184 l 682 79 "},"ü":{"x_min":102,"x_max":615,"ha":717,"o":"m 615 0 l 532 0 l 532 95 q 465 21 499 45 q 323 -19 407 -19 q 146 51 207 -19 q 109 128 117 85 q 102 213 102 166 l 102 672 l 185 672 l 185 232 q 197 134 185 164 q 255 71 213 92 q 332 54 289 54 q 478 114 420 54 q 532 277 532 169 l 532 672 l 615 672 l 615 0 m 288 917 l 288 797 l 200 797 l 200 917 l 288 917 m 518 917 l 518 797 l 429 797 l 429 917 l 518 917 "},"¯":{"x_min":39,"x_max":758,"ha":795,"o":"m 742 926 l 742 847 l 163 79 l 758 79 l 758 0 l 39 0 l 39 56 l 632 847 l 106 847 l 106 926 l 742 926 m 449 1144 l 449 1024 l 347 1024 l 347 1144 l 449 1144 "},"Z":{"x_min":39,"x_max":758,"ha":795,"o":"m 742 926 l 742 847 l 162 79 l 758 79 l 758 0 l 39 0 l 39 56 l 632 847 l 106 847 l 106 926 l 742 926 "},"u":{"x_min":102,"x_max":615,"ha":717,"o":"m 615 0 l 532 0 l 532 95 q 464 21 498 45 q 323 -19 407 -19 q 146 51 207 -19 q 109 128 117 85 q 102 213 102 166 l 102 672 l 185 672 l 185 232 q 197 134 185 164 q 255 71 213 92 q 332 54 289 54 q 478 114 420 54 q 532 277 532 169 l 532 672 l 615 672 l 615 0 "},"Ó":{"x_min":72,"x_max":930,"ha":1003,"o":"m 499 947 q 822 801 702 947 q 930 456 930 670 q 822 124 930 255 q 500 -22 702 -22 q 179 124 299 -22 q 72 462 72 255 q 179 801 72 668 q 499 947 299 947 m 499 868 q 316 810 399 868 q 165 462 165 705 q 248 177 165 285 q 369 84 295 116 q 501 57 432 57 q 686 114 603 57 q 811 290 774 175 q 837 457 837 367 q 753 747 837 639 q 632 840 706 808 q 499 868 569 868 m 444 998 l 538 1169 l 650 1169 l 510 998 l 444 998 "},"k":{"x_min":102,"x_max":649.546875,"ha":678,"o":"m 362 420 l 649 0 l 547 0 l 303 369 l 185 262 l 185 0 l 102 0 l 102 926 l 185 926 l 185 355 l 527 672 l 638 672 l 362 420 "},"ˇ":{"x_min":151.234375,"x_max":543.21875,"ha":694,"o":"m 299 769 l 151 945 l 245 945 l 347 821 l 449 945 l 543 945 l 395 769 l 299 769 "},"Ù":{"x_min":111,"x_max":795,"ha":906,"o":"m 702 926 l 795 926 l 795 327 q 764 150 795 213 q 623 17 720 60 q 453 -15 549 -15 q 191 80 286 -15 q 122 205 137 134 q 111 327 111 257 l 111 926 l 204 926 l 204 319 q 253 144 204 202 q 453 64 322 64 q 652 144 583 64 q 702 319 702 202 l 702 926 m 452 1186 q 525 1156 495 1186 q 555 1082 555 1126 q 525 1011 555 1041 q 452 982 494 982 q 380 1011 411 982 q 351 1084 351 1042 q 380 1156 351 1127 q 452 1186 412 1186 m 452 1135 q 417 1119 432 1135 q 402 1084 402 1104 q 416 1047 402 1063 q 452 1033 432 1033 q 489 1047 473 1033 q 504 1083 504 1063 q 489 1120 504 1105 q 452 1135 473 1135 "},"¢":{"x_min":139.03125,"x_max":555.421875,"ha":694,"o":"m 555 943 q 504 838 540 879 q 347 771 444 771 q 181 849 242 771 q 139 943 152 886 l 210 943 q 347 844 254 844 q 484 943 440 844 l 555 943 "},"ß":{"x_min":102,"x_max":641,"ha":705,"o":"m 281 486 l 281 553 l 315 553 q 449 586 402 553 q 508 711 508 628 q 459 824 508 782 q 346 864 414 864 q 231 821 274 864 q 193 756 201 793 q 185 658 185 718 l 185 0 l 102 0 l 102 671 q 134 832 102 779 q 243 918 170 891 q 350 937 293 937 q 522 878 457 937 q 591 716 591 816 q 474 527 591 593 q 641 282 641 467 q 556 58 641 138 q 360 -9 482 -9 q 263 0 317 -9 l 263 78 q 350 64 310 64 q 504 124 447 64 q 558 278 558 182 q 499 435 558 382 q 317 486 440 486 l 281 486 "},"é":{"x_min":64,"x_max":650,"ha":714,"o":"m 650 322 l 149 322 q 184 160 149 222 q 262 82 213 109 q 367 55 310 55 q 565 210 513 55 l 650 210 q 364 -18 578 -18 q 192 34 266 -18 q 87 180 118 85 q 64 332 64 249 q 138 582 64 484 q 363 691 220 691 q 599 563 522 691 q 650 345 650 479 q 650 322 650 338 m 563 389 q 539 509 563 459 q 470 587 515 560 q 366 617 425 617 q 230 564 286 617 q 151 389 168 507 l 563 389 m 397 945 l 516 945 l 362 769 l 290 769 l 397 945 "},"s":{"x_min":65,"x_max":594,"ha":654,"o":"m 578 478 l 497 478 q 459 567 487 536 q 326 616 417 616 q 213 586 257 616 q 169 500 169 557 q 268 402 169 426 l 434 363 q 558 299 521 342 q 594 195 594 257 q 523 40 594 98 q 332 -18 452 -18 q 107 68 180 -18 q 65 215 65 121 l 155 215 q 335 55 155 55 q 458 89 413 55 q 505 185 505 125 q 398 288 505 262 l 235 326 q 81 497 81 363 q 155 643 81 592 q 331 690 223 690 q 542 601 477 690 q 578 478 578 553 "},"B":{"x_min":111,"x_max":805,"ha":869,"o":"m 111 0 l 111 926 l 486 926 q 637 903 585 926 q 739 805 706 872 q 764 694 764 755 q 719 555 764 611 q 631 492 690 517 q 742 431 704 469 q 805 262 805 367 q 722 64 805 136 q 615 10 675 23 q 491 0 559 0 l 111 0 m 199 517 l 475 517 q 633 568 586 517 q 675 682 675 613 q 633 796 675 751 q 475 847 586 847 l 199 847 l 199 517 m 199 79 l 501 79 q 660 121 609 79 q 715 261 715 167 q 660 401 715 355 q 501 444 609 444 l 199 444 l 199 79 "},"…":{"x_min":102,"x_max":864,"ha":966,"o":"m 102 139 l 220 139 l 220 0 l 102 0 l 102 139 m 423 139 l 541 139 l 541 0 l 423 0 l 423 139 m 746 139 l 864 139 l 864 0 l 746 0 l 746 139 "},"?":{"x_min":51,"x_max":610,"ha":651,"o":"m 366 231 l 283 231 q 283 261 283 251 q 306 388 283 333 q 397 501 328 439 q 481 587 458 555 q 517 693 517 636 q 466 817 517 768 q 337 866 416 866 q 216 826 266 866 q 147 709 160 783 q 143 645 143 680 q 143 641 143 645 l 51 641 q 51 660 51 653 q 124 861 51 783 q 342 945 202 945 q 530 881 458 945 q 610 699 610 811 q 570 567 610 625 q 488 476 544 528 q 412 405 426 420 q 388 371 398 390 q 366 254 366 327 q 366 231 366 246 m 383 120 l 383 0 l 272 0 l 272 120 l 383 120 "},"H":{"x_min":111,"x_max":804,"ha":915,"o":"m 711 452 l 204 452 l 204 0 l 111 0 l 111 926 l 204 926 l 204 531 l 711 531 l 711 926 l 804 926 l 804 0 l 711 0 l 711 452 "},"î":{"x_min":-51.9375,"x_max":339.625,"ha":287,"o":"m 185 672 l 185 0 l 102 0 l 102 672 l 185 672 m 191 945 l 339 769 l 244 769 l 143 891 l 41 769 l -51 769 l 95 945 l 191 945 "},"c":{"x_min":64,"x_max":640.71875,"ha":688,"o":"m 636 463 l 553 463 q 504 563 541 526 q 366 616 450 616 q 199 533 257 616 q 147 340 147 458 q 198 143 147 219 q 274 77 227 102 q 369 56 318 56 q 524 136 471 56 q 560 235 549 174 l 640 235 q 572 72 624 135 q 365 -19 496 -19 q 139 83 221 -19 q 64 333 64 179 q 140 582 64 486 q 370 690 225 690 q 580 599 504 690 q 636 463 626 544 "},"¶":{"x_min":32.90625,"x_max":654,"ha":752,"o":"m 313 -157 l 313 433 q 289 433 301 433 q 147 469 211 433 q 64 554 95 499 q 32 677 32 609 q 81 828 32 762 q 209 912 127 890 q 332 926 260 926 l 654 926 l 654 883 l 571 883 l 571 -157 l 519 -157 l 519 883 l 365 883 l 365 -157 l 313 -157 "},"•":{"x_min":272,"x_max":657,"ha":926,"o":"m 467 663 q 600 606 543 663 q 657 470 657 550 q 600 334 657 391 q 464 278 544 278 q 329 333 385 278 q 272 470 272 390 q 328 607 272 551 q 467 663 387 663 "},"¥":{"x_min":11.984375,"x_max":915,"ha":847,"o":"m 834 0 q 757 -108 757 -52 q 785 -164 757 -141 q 848 -183 809 -183 q 915 -168 875 -183 l 915 -216 q 833 -233 868 -233 q 736 -200 773 -233 q 701 -123 701 -170 q 786 0 701 -55 l 741 0 l 638 263 l 210 263 l 104 0 l 11 0 l 382 926 l 471 926 l 834 0 m 616 330 l 455 736 q 427 831 435 794 q 395 737 414 791 l 231 330 l 616 330 "},"(":{"x_min":72,"x_max":347.328125,"ha":436,"o":"m 261 926 l 326 926 q 160 375 160 688 q 347 -227 160 35 l 276 -227 q 160 -33 204 -126 q 72 359 72 154 q 261 926 72 675 "},"U":{"x_min":111,"x_max":795,"ha":906,"o":"m 702 926 l 795 926 l 795 327 q 764 150 795 213 q 623 17 720 60 q 453 -15 549 -15 q 191 80 286 -15 q 122 205 137 134 q 111 327 111 257 l 111 926 l 204 926 l 204 319 q 253 144 204 202 q 453 64 322 64 q 652 144 583 64 q 702 319 702 202 l 702 926 "},"◊":{"x_min":102.40625,"x_max":823.296875,"ha":926,"o":"m 463 962 l 823 463 l 463 -35 l 102 463 l 463 962 m 463 839 l 189 463 l 463 87 l 736 463 l 463 839 "},"Ñ":{"x_min":111,"x_max":822,"ha":933,"o":"m 822 0 l 726 0 l 191 814 q 191 554 191 728 l 191 441 l 191 0 l 111 0 l 111 926 l 207 926 l 741 115 q 741 496 741 282 l 741 926 l 822 926 l 822 0 m 409 998 l 504 1170 l 615 1170 l 476 998 l 409 998 "},"F":{"x_min":111,"x_max":699.75,"ha":732,"o":"m 699 926 l 699 847 l 204 847 l 204 518 l 636 518 l 636 439 l 204 439 l 204 0 l 111 0 l 111 926 l 699 926 "},"­":{"x_min":0,"x_max":336,"ha":336,"o":"m 336 382 l 336 303 l 0 303 l 0 382 l 336 382 "},":":{"x_min":102,"x_max":220,"ha":322,"o":"m 102 672 l 220 672 l 220 533 l 102 533 l 102 672 m 102 139 l 220 139 l 220 0 l 102 0 l 102 139 "},"Û":{"x_min":111,"x_max":795,"ha":906,"o":"m 702 926 l 795 926 l 795 327 q 764 150 795 213 q 623 17 720 60 q 453 -15 549 -15 q 191 80 286 -15 q 122 205 137 134 q 111 327 111 257 l 111 926 l 204 926 l 204 319 q 253 144 204 202 q 453 64 322 64 q 652 144 583 64 q 702 319 702 202 l 702 926 m 410 1171 l 529 1171 l 374 996 l 303 996 l 410 1171 m 632 1172 l 751 1172 l 596 996 l 524 996 l 632 1172 "},"*":{"x_min":60.203125,"x_max":459.46875,"ha":519,"o":"m 294 926 l 294 773 l 436 824 l 459 754 l 312 710 l 405 589 l 346 546 l 259 672 l 172 546 l 113 588 l 206 710 l 60 754 l 82 824 l 225 773 l 225 926 l 294 926 "},"†":{"x_min":56,"x_max":660,"ha":716,"o":"m 400 602 l 660 602 l 660 523 l 400 523 l 400 -213 l 317 -213 l 317 523 l 56 523 l 56 602 l 317 602 l 317 926 l 400 926 l 400 602 "},"°":{"x_min":155,"x_max":539,"ha":694,"o":"m 348 919 q 484 860 427 919 q 539 725 539 804 q 482 590 539 646 q 348 534 426 534 q 205 596 262 534 q 155 726 155 650 q 220 871 155 816 q 348 919 276 919 m 345 874 q 249 835 290 874 q 201 726 201 789 q 236 629 201 671 q 347 579 280 579 q 448 620 404 579 q 493 723 493 664 q 451 829 493 786 q 345 874 406 874 "},"V":{"x_min":18.3125,"x_max":784.640625,"ha":804,"o":"m 452 0 l 358 0 l 18 926 l 119 926 l 340 288 l 359 234 q 406 101 382 167 l 413 124 q 469 288 448 229 l 686 926 l 784 926 l 452 0 "},"å":{"x_min":89.125,"x_max":295.265625,"ha":292,"o":"m 190 926 l 190 0 l 102 0 l 102 926 l 190 926 m 89 998 l 184 1169 l 295 1169 l 155 998 l 89 998 "}," ":{"x_min":0,"x_max":0,"ha":416},"0":{"x_min":85,"x_max":692,"ha":777,"o":"m 388 936 q 574 866 497 936 q 675 665 648 798 q 692 452 692 583 q 630 123 692 241 q 525 15 594 55 q 388 -18 464 -18 q 202 52 278 -18 q 101 252 128 119 q 85 459 85 334 q 146 794 85 678 q 251 902 184 864 q 388 936 313 936 m 388 857 q 262 805 315 857 q 178 459 178 722 q 226 164 178 265 q 295 86 249 115 q 388 61 337 61 q 514 112 461 61 q 599 453 599 195 q 550 753 599 656 q 481 831 527 803 q 388 857 439 857 "},"”":{"x_min":102.0625,"x_max":438,"ha":539,"o":"m 102 926 l 221 926 l 221 775 q 102 603 221 624 l 102 666 q 150 713 136 675 q 157 787 157 733 l 102 787 l 102 926 m 319 926 l 438 926 l 438 775 q 319 603 438 624 l 319 666 q 367 713 353 675 q 374 787 374 733 l 319 787 l 319 926 "},"¾":{"x_min":102,"x_max":512,"ha":614,"o":"m 190 926 l 190 0 l 102 0 l 102 926 l 190 926 m 393 926 l 512 926 l 512 775 q 393 603 512 624 l 393 666 q 441 713 427 675 q 448 787 448 733 l 393 787 l 393 926 "},"@":{"x_min":43,"x_max":919,"ha":962,"o":"m 854 231 l 897 231 q 789 90 861 148 q 498 -11 659 -11 q 251 60 363 -11 q 88 245 144 129 q 43 446 43 339 q 109 689 43 578 q 268 847 169 788 q 507 912 378 912 q 706 865 612 912 q 874 710 818 810 q 919 534 919 630 q 800 275 919 375 q 631 204 714 204 q 549 242 575 204 q 536 282 540 256 q 385 205 465 205 q 275 263 315 205 q 246 368 246 303 q 307 568 246 472 q 411 671 350 634 q 506 698 454 698 q 632 606 596 698 l 658 676 l 710 676 l 597 349 q 585 290 585 313 q 643 239 585 239 q 783 307 713 239 q 878 532 878 398 q 760 785 878 687 q 508 875 654 875 q 284 812 387 875 q 143 666 195 757 q 86 447 86 567 q 202 152 86 272 q 499 28 324 28 q 759 119 642 28 q 854 231 820 166 m 558 397 l 590 484 q 608 560 608 533 q 579 634 608 604 q 516 663 553 663 q 376 575 442 663 q 303 357 303 477 q 324 274 303 304 q 394 240 350 240 q 497 286 450 240 q 558 397 530 319 "},"ö":{"x_min":64,"x_max":682.15625,"ha":746,"o":"m 372 690 q 594 595 509 690 q 682 331 682 498 q 594 76 682 173 q 373 -19 510 -19 q 151 76 236 -19 q 64 335 64 173 q 151 595 64 497 q 372 690 235 690 m 372 617 q 251 579 305 617 q 168 454 193 537 q 152 335 152 399 q 205 140 152 218 q 290 71 236 94 q 373 54 328 54 q 494 92 441 54 q 577 217 551 134 q 594 332 594 272 q 541 531 594 454 q 372 617 482 617 m 303 917 l 303 797 l 214 797 l 214 917 l 303 917 m 532 917 l 532 797 l 443 797 l 443 917 l 532 917 "},"i":{"x_min":102,"x_max":185,"ha":287,"o":"m 185 672 l 185 0 l 102 0 l 102 672 l 185 672 m 185 926 l 185 815 l 102 815 l 102 926 l 185 926 "},"Õ":{"x_min":72,"x_max":930,"ha":1003,"o":"m 499 947 q 822 801 702 947 q 930 456 930 670 q 822 124 930 255 q 500 -22 702 -22 q 179 124 299 -22 q 72 462 72 255 q 179 801 72 668 q 499 947 299 947 m 499 868 q 316 810 399 868 q 165 462 165 705 q 248 177 165 285 q 369 84 295 116 q 501 57 432 57 q 686 114 603 57 q 811 290 774 175 q 837 457 837 367 q 753 747 837 639 q 632 840 706 808 q 499 868 569 868 m 457 1171 l 577 1171 l 422 996 l 350 996 l 457 1171 m 680 1171 l 799 1171 l 645 996 l 573 996 l 680 1171 "},"þ":{"x_min":27,"x_max":315.4375,"ha":352,"o":"m 315 672 l 315 605 l 211 605 l 211 131 q 218 86 211 97 q 256 70 228 70 q 315 78 280 70 l 315 2 q 233 -9 263 -9 q 145 23 173 -9 q 122 123 122 50 l 122 605 l 27 605 l 27 672 l 122 672 l 122 868 l 211 868 l 211 672 l 315 672 m 212 -76 l 212 -153 q 180 -259 212 -226 q 115 -302 155 -285 l 115 -259 q 146 -236 122 -254 q 168 -170 168 -220 l 134 -170 l 134 -76 l 212 -76 "},"]":{"x_min":93.1875,"x_max":324,"ha":426,"o":"m 93 -153 l 239 -153 l 239 852 l 93 852 l 93 926 l 324 926 l 324 -227 l 93 -227 l 93 -153 "},"m":{"x_min":102,"x_max":1001,"ha":1103,"o":"m 102 672 l 185 672 l 185 586 q 381 690 250 690 q 525 646 472 690 q 575 570 555 621 q 645 650 606 624 q 788 690 704 690 q 955 624 895 690 q 994 548 987 589 q 1001 460 1001 515 l 1001 0 l 918 0 l 918 460 q 886 572 918 537 q 774 617 848 617 q 628 543 675 617 q 595 390 595 491 l 595 0 l 512 0 l 512 460 q 484 569 512 535 q 372 616 448 616 q 234 559 286 616 q 185 412 185 506 l 185 0 l 102 0 l 102 672 "},"8":{"x_min":81,"x_max":698,"ha":778,"o":"m 532 500 q 698 257 698 431 q 609 56 698 134 q 389 -18 524 -18 q 169 56 254 -18 q 81 257 81 134 q 246 500 81 431 q 118 694 118 566 q 196 869 118 801 q 389 936 272 936 q 582 869 505 936 q 660 693 660 801 q 532 500 660 566 m 388 857 q 259 811 311 857 q 206 694 206 765 q 259 576 206 624 q 388 532 310 532 q 518 576 467 532 q 572 692 572 623 q 518 811 572 766 q 388 857 466 857 m 388 460 q 230 399 292 460 q 173 260 173 343 q 230 121 173 177 q 389 61 292 61 q 547 121 485 61 q 605 258 605 177 q 547 399 605 345 q 388 460 484 460 "},"R":{"x_min":111,"x_max":828.984375,"ha":892,"o":"m 204 420 l 204 0 l 111 0 l 111 926 l 500 926 q 657 903 603 926 q 791 683 791 847 q 738 523 791 584 q 645 459 705 487 q 724 402 694 436 q 765 253 765 352 l 765 132 q 779 59 765 87 q 828 0 795 30 l 705 0 q 680 105 680 46 l 680 211 q 645 348 670 305 q 576 408 621 392 q 491 420 545 420 l 204 420 m 204 493 l 483 493 q 610 512 569 493 q 683 585 658 535 q 701 670 701 623 q 648 802 701 754 q 581 838 618 830 q 483 847 538 847 l 204 847 l 204 493 "},"á":{"x_min":59,"x_max":681.28125,"ha":713,"o":"m 180 467 l 91 467 q 145 619 91 566 q 358 690 216 690 q 550 632 483 690 q 606 488 606 584 l 606 111 q 641 54 606 54 q 681 62 654 54 l 681 -2 q 618 -12 643 -12 q 522 82 522 -12 q 522 98 522 87 q 279 -19 438 -19 q 126 24 185 -19 q 59 174 59 76 q 120 319 59 267 q 269 376 166 359 l 466 408 q 512 423 504 414 q 520 475 520 433 q 493 572 520 542 q 352 616 453 616 q 203 558 241 616 q 180 467 180 524 m 523 346 l 283 306 q 147 177 147 282 q 186 84 147 119 q 293 50 226 50 q 433 92 373 50 q 523 271 523 153 l 523 346 m 396 945 l 515 945 l 361 769 l 289 769 l 396 945 "},"×":{"x_min":88.15625,"x_max":606.28125,"ha":694,"o":"m 124 727 l 346 504 l 569 727 l 606 691 l 383 468 l 605 246 l 569 210 l 347 432 l 124 209 l 88 246 l 311 469 l 88 691 l 124 727 "},"o":{"x_min":64,"x_max":682.15625,"ha":746,"o":"m 372 690 q 594 595 509 690 q 682 331 682 498 q 594 76 682 173 q 373 -19 510 -19 q 151 76 236 -19 q 64 335 64 173 q 151 595 64 497 q 372 690 235 690 m 372 617 q 251 579 305 617 q 168 454 193 537 q 152 335 152 399 q 205 140 152 218 q 290 71 236 94 q 373 54 328 54 q 494 92 441 54 q 577 217 551 134 q 594 332 594 272 q 541 531 594 454 q 372 617 482 617 "},"5":{"x_min":88.625,"x_max":690.15625,"ha":778,"o":"m 259 829 l 216 540 q 399 596 296 596 q 612 511 533 596 q 690 294 690 429 q 608 69 690 154 q 386 -18 525 -18 q 148 86 229 -18 q 88 239 100 149 l 178 239 q 227 122 188 166 q 384 61 283 61 q 543 123 486 61 q 602 289 602 186 q 546 452 602 390 q 388 517 488 517 q 197 422 262 517 l 118 422 l 189 917 l 637 917 l 637 829 l 259 829 "},"õ":{"x_min":64,"x_max":682.15625,"ha":746,"o":"m 372 690 q 594 595 509 690 q 682 331 682 498 q 594 76 682 173 q 373 -19 510 -19 q 151 76 236 -19 q 64 335 64 173 q 151 595 64 497 q 372 690 235 690 m 372 617 q 251 579 305 617 q 168 454 193 537 q 152 335 152 399 q 205 140 152 218 q 290 71 236 94 q 373 54 328 54 q 494 92 441 54 q 577 217 551 134 q 594 332 594 272 q 541 531 594 454 q 372 617 482 617 m 329 945 l 448 945 l 294 769 l 222 769 l 329 945 m 551 945 l 671 945 l 516 769 l 444 769 l 551 945 "},"7":{"x_min":104,"x_max":688,"ha":778,"o":"m 688 917 l 688 837 q 465 486 568 716 q 328 0 354 236 l 228 0 q 391 523 272 281 q 589 829 477 696 l 104 829 l 104 917 l 688 917 "},"K":{"x_min":111,"x_max":836.734375,"ha":855,"o":"m 419 546 l 836 0 l 724 0 l 353 483 l 204 344 l 204 0 l 111 0 l 111 926 l 204 926 l 204 447 l 707 926 l 829 926 l 419 546 "},",":{"x_min":102.0625,"x_max":221,"ha":322,"o":"m 102 139 l 221 139 l 221 -11 q 102 -183 221 -162 l 102 -120 q 150 -73 136 -111 q 157 0 157 -53 l 102 0 l 102 139 "},"d":{"x_min":64,"x_max":659,"ha":761,"o":"m 659 926 l 659 0 l 576 0 l 576 97 q 501 21 539 46 q 358 -19 439 -19 q 139 85 220 -19 q 64 336 64 182 q 135 578 64 482 q 358 690 218 690 q 576 572 492 690 l 576 926 l 659 926 m 361 616 q 204 542 263 616 q 147 335 147 469 q 206 124 147 198 q 361 54 264 54 q 516 124 458 54 q 576 331 576 198 q 518 542 576 469 q 361 616 459 616 "},"¨":{"x_min":189,"x_max":506.15625,"ha":695,"o":"m 277 917 l 277 797 l 189 797 l 189 917 l 277 917 m 506 917 l 506 797 l 418 797 l 418 917 l 506 917 "},"Ô":{"x_min":72,"x_max":930,"ha":1003,"o":"m 499 947 q 822 801 702 947 q 930 456 930 670 q 822 124 930 255 q 500 -22 702 -22 q 179 124 299 -22 q 72 462 72 255 q 179 801 72 668 q 499 947 299 947 m 499 868 q 316 810 399 868 q 165 462 165 705 q 248 177 165 285 q 369 84 295 116 q 501 57 432 57 q 686 114 603 57 q 811 290 774 175 q 837 457 837 367 q 753 747 837 639 q 632 840 706 808 q 499 868 569 868 m 548 1171 l 696 996 l 602 996 l 500 1118 l 398 996 l 305 996 l 453 1171 l 548 1171 "},"E":{"x_min":111,"x_max":742.46875,"ha":799,"o":"m 730 926 l 730 847 l 204 847 l 204 512 l 687 512 l 687 439 l 204 439 l 204 79 l 742 79 l 742 0 l 111 0 l 111 926 l 730 926 "},"Y":{"x_min":-0.328125,"x_max":790.421875,"ha":790,"o":"m 441 405 l 441 0 l 353 0 l 353 405 l 0 926 l 108 926 l 397 487 l 683 926 l 790 926 l 441 405 "},"\"":{"x_min":79,"x_max":352,"ha":432,"o":"m 161 556 l 79 556 l 79 926 l 161 926 l 161 556 m 352 556 l 270 556 l 270 926 l 352 926 l 352 556 "},"‹":{"x_min":65,"x_max":290,"ha":369,"o":"m 290 112 l 65 304 l 65 379 l 290 570 l 290 471 l 132 341 l 290 212 l 290 112 "},"˙":{"x_min":303,"x_max":391.15625,"ha":694,"o":"m 391 917 l 391 797 l 303 797 l 303 917 l 391 917 "},"ê":{"x_min":52,"x_max":674,"ha":724,"o":"m 363 -18 q 311 -108 311 -61 q 338 -163 311 -141 q 403 -183 363 -183 q 468 -168 428 -183 l 468 -214 q 387 -230 422 -230 q 291 -198 328 -230 q 257 -121 257 -169 q 317 -14 257 -65 q 179 40 235 -1 q 52 329 52 137 q 140 586 52 488 q 368 685 228 685 q 556 621 478 685 q 674 335 674 525 q 674 321 674 332 l 134 321 q 156 187 134 244 q 235 82 182 120 q 369 40 292 40 q 534 112 471 40 q 586 227 569 153 l 665 227 q 592 74 652 142 q 363 -18 504 -18 m 591 371 q 552 524 591 464 q 369 626 489 626 q 217 568 281 626 q 134 371 147 507 l 591 371 "},"Ï":{"x_min":111,"x_max":849,"ha":921,"o":"m 111 0 l 111 926 l 449 926 q 690 864 604 926 q 827 645 787 794 q 849 466 849 564 q 752 131 849 261 q 616 27 696 55 q 429 0 540 0 l 111 0 m 204 79 l 409 79 q 618 122 553 79 q 757 464 757 215 q 675 760 757 663 q 602 818 642 799 q 443 847 540 847 l 204 847 l 204 79 m 412 996 l 265 1171 l 359 1171 l 460 1048 l 563 1172 l 656 1172 l 508 996 l 412 996 "},"„":{"x_min":102.0625,"x_max":438,"ha":539,"o":"m 102 139 l 221 139 l 221 -11 q 102 -183 221 -162 l 102 -120 q 150 -73 136 -111 q 157 0 157 -53 l 102 0 l 102 139 m 319 139 l 438 139 l 438 -11 q 319 -183 438 -162 l 319 -120 q 367 -73 353 -111 q 374 0 374 -53 l 319 0 l 319 139 "},"Â":{"x_min":18.3125,"x_max":838.890625,"ha":857,"o":"m 630 292 l 222 292 l 113 0 l 18 0 l 377 926 l 473 926 l 838 0 l 743 0 l 630 292 m 600 365 l 422 830 l 250 365 l 600 365 m 476 1171 l 624 996 l 529 996 l 428 1118 l 326 996 l 232 996 l 380 1171 l 476 1171 "},"Í":{"x_min":100.828125,"x_max":307.078125,"ha":315,"o":"m 204 926 l 204 0 l 111 0 l 111 926 l 204 926 m 100 998 l 195 1169 l 307 1169 l 167 998 l 100 998 "},"´":{"x_min":280.078125,"x_max":506.59375,"ha":694,"o":"m 387 945 l 506 945 l 351 769 l 280 769 l 387 945 "},"ì":{"x_min":64,"x_max":650,"ha":714,"o":"m 650 322 l 149 322 q 184 160 149 222 q 262 82 213 109 q 367 55 310 55 q 565 210 513 55 l 650 210 q 364 -18 578 -18 q 192 34 266 -18 q 87 180 118 85 q 64 332 64 249 q 138 582 64 484 q 363 691 220 691 q 599 563 522 691 q 650 345 650 479 q 650 322 650 338 m 563 389 q 539 509 563 459 q 470 587 515 560 q 366 617 425 617 q 230 564 286 617 q 151 389 168 507 l 563 389 m 309 769 l 160 945 l 255 945 l 357 821 l 459 945 l 552 945 l 404 769 l 309 769 "},"±":{"x_min":35,"x_max":659,"ha":694,"o":"m 35 512 l 320 512 l 320 778 l 373 778 l 373 512 l 659 512 l 659 461 l 373 461 l 373 199 l 320 199 l 320 461 l 35 461 l 35 512 m 35 136 l 659 136 l 659 85 l 35 85 l 35 136 "},"Ú":{"x_min":111,"x_max":795,"ha":906,"o":"m 702 926 l 795 926 l 795 327 q 764 150 795 213 q 623 17 720 60 q 453 -15 549 -15 q 191 80 286 -15 q 122 205 137 134 q 111 327 111 257 l 111 926 l 204 926 l 204 319 q 253 144 204 202 q 453 64 322 64 q 652 144 583 64 q 702 319 702 202 l 702 926 m 396 998 l 491 1169 l 602 1169 l 463 998 l 396 998 "},"|":{"x_min":302,"x_max":392,"ha":694,"o":"m 302 926 l 392 926 l 392 -231 l 302 -231 l 302 926 "},"§":{"x_min":102,"x_max":706,"ha":808,"o":"m 636 722 l 543 722 q 509 813 536 782 q 398 862 467 862 q 305 831 341 862 q 268 749 268 799 q 286 690 268 717 q 359 630 304 662 l 543 520 q 665 423 631 468 q 706 303 706 372 q 582 120 706 184 q 638 -18 638 51 q 568 -171 638 -109 q 402 -231 502 -231 q 257 -191 321 -231 q 164 -71 188 -149 q 155 7 155 -42 l 247 7 q 278 -86 253 -51 q 402 -148 321 -148 q 501 -114 461 -148 q 545 -21 545 -78 q 526 42 545 13 q 444 109 505 72 l 281 206 q 144 313 185 263 q 102 434 102 368 q 223 618 102 553 q 175 748 175 676 q 246 897 175 841 q 399 945 307 945 q 602 838 537 945 q 636 722 629 792 m 279 569 q 195 444 195 524 q 227 362 195 398 q 385 252 265 320 l 525 170 q 613 296 613 219 q 581 377 613 343 q 488 446 551 408 l 279 569 "},"Ý":{"x_min":-0.328125,"x_max":790.421875,"ha":790,"o":"m 441 405 l 441 0 l 353 0 l 353 405 l 0 926 l 108 926 l 397 487 l 683 926 l 790 926 l 441 405 m 338 998 l 433 1170 l 544 1170 l 405 998 l 338 998 "},"b":{"x_min":102,"x_max":699,"ha":763,"o":"m 102 0 l 102 926 l 185 926 l 185 563 q 411 690 269 690 q 617 599 539 690 q 699 342 699 504 q 629 94 699 190 q 402 -18 548 -18 q 254 27 317 -18 q 185 105 218 53 l 185 0 l 102 0 m 400 616 q 243 542 301 616 q 185 340 185 469 q 245 125 185 199 q 401 55 303 55 q 555 125 497 55 q 616 336 616 199 q 557 542 616 469 q 400 616 499 616 "},"q":{"x_min":64,"x_max":660,"ha":762,"o":"m 660 672 l 660 -213 l 577 -213 l 577 107 q 350 -18 500 -18 q 134 85 213 -18 q 64 332 64 179 q 130 573 64 481 q 362 690 215 690 q 577 568 502 690 l 577 672 l 660 672 m 361 616 q 244 576 297 616 q 147 336 147 506 q 202 135 147 209 q 277 74 231 96 q 362 55 317 55 q 479 94 426 55 q 577 331 577 165 q 521 536 577 463 q 361 616 460 616 "},"Ö":{"x_min":72,"x_max":930,"ha":1003,"o":"m 499 947 q 822 801 702 947 q 930 456 930 670 q 822 124 930 255 q 500 -22 702 -22 q 179 124 299 -22 q 72 462 72 255 q 179 801 72 668 q 499 947 299 947 m 499 868 q 316 810 399 868 q 165 462 165 705 q 248 177 165 285 q 369 84 295 116 q 501 57 432 57 q 686 114 602 57 q 811 290 774 175 q 837 457 837 367 q 753 747 837 639 q 632 840 706 808 q 499 868 569 868 m 393 1143 l 393 1023 l 291 1023 l 291 1143 l 393 1143 m 711 1143 l 711 1023 l 609 1023 l 609 1143 l 711 1143 "},"z":{"x_min":40,"x_max":576,"ha":600,"o":"m 576 72 l 576 0 l 40 0 l 40 61 l 455 600 l 70 600 l 70 672 l 559 672 l 559 607 l 146 72 l 576 72 "},"™":{"x_min":12,"x_max":1072,"ha":1147,"o":"m 263 870 l 263 369 l 195 369 l 195 870 l 12 870 l 12 926 l 446 926 l 446 870 l 263 870 m 833 370 l 771 370 l 597 817 q 597 554 597 702 l 597 370 l 533 370 l 533 926 l 615 926 l 803 448 l 992 926 l 1072 926 l 1072 370 l 1008 370 l 1008 519 q 1008 812 1008 676 l 833 370 "},"ã":{"x_min":59,"x_max":681.28125,"ha":713,"o":"m 180 467 l 91 467 q 145 619 91 566 q 358 690 216 690 q 550 632 483 690 q 606 488 606 584 l 606 111 q 641 54 606 54 q 681 62 654 54 l 681 -2 q 618 -12 643 -12 q 522 82 522 -12 q 522 98 522 87 q 279 -19 438 -19 q 126 24 185 -19 q 59 174 59 76 q 120 319 59 267 q 269 375 166 359 l 466 408 q 512 423 504 414 q 520 475 520 433 q 493 572 520 542 q 352 616 453 616 q 203 558 241 616 q 180 467 180 524 m 523 346 l 283 306 q 147 177 147 282 q 186 84 147 119 q 293 50 226 50 q 433 92 373 50 q 523 271 523 153 l 523 346 m 564 943 q 513 838 548 879 q 356 771 453 771 q 191 849 251 771 q 147 943 162 886 l 219 943 q 356 844 263 844 q 493 943 449 844 l 564 943 "},"æ":{"x_min":64,"x_max":640.71875,"ha":688,"o":"m 636 463 l 553 463 q 504 563 541 526 q 366 616 450 616 q 199 533 257 616 q 147 340 147 458 q 198 143 147 219 q 274 77 227 102 q 369 56 318 56 q 524 136 471 56 q 560 235 549 174 l 640 235 q 572 72 624 135 q 365 -19 496 -19 q 139 83 221 -19 q 64 333 64 179 q 140 582 64 486 q 370 690 225 690 q 580 599 504 690 q 636 463 626 544 m 383 945 l 503 945 l 348 769 l 276 769 l 383 945 "},"®":{"x_min":67,"x_max":1023,"ha":1090,"o":"m 339 732 l 569 732 q 695 704 650 732 q 762 582 762 664 q 660 448 762 484 q 728 405 705 436 q 749 339 745 380 q 754 273 754 326 q 758 214 754 237 q 769 183 760 201 l 710 183 q 696 284 696 199 q 682 373 696 352 q 619 420 668 409 q 545 427 589 427 l 399 427 l 399 183 l 339 183 l 339 732 m 399 689 l 399 468 l 545 468 q 702 579 702 468 q 558 689 702 689 l 399 689 m 551 941 q 794 870 679 941 q 970 679 909 799 q 1023 462 1023 576 q 952 212 1023 327 q 762 36 881 97 q 545 -16 659 -16 q 296 54 410 -16 q 119 245 180 125 q 67 461 67 347 q 137 713 67 597 q 328 889 206 826 q 551 941 429 941 m 550 894 q 244 768 369 894 q 151 627 184 708 q 119 461 119 547 q 181 236 119 340 q 351 77 244 133 q 544 31 442 31 q 768 94 664 31 q 924 266 870 158 q 971 462 971 358 q 908 688 971 583 q 738 847 847 790 q 550 894 648 894 "},"É":{"x_min":111,"x_max":742.46875,"ha":799,"o":"m 730 926 l 730 847 l 204 847 l 204 512 l 687 512 l 687 439 l 204 439 l 204 79 l 742 79 l 742 0 l 111 0 l 111 926 l 730 926 m 343 998 l 437 1169 l 549 1169 l 409 998 l 343 998 "},"~":{"x_min":131.5625,"x_max":795.5,"ha":926,"o":"m 181 813 l 131 852 q 316 1002 204 1002 q 478 946 369 1002 q 570 903 545 910 q 611 897 593 897 q 745 1005 685 897 l 795 966 q 603 817 726 817 q 528 833 573 817 q 429 882 513 840 q 312 921 354 921 q 181 813 242 921 "},"³":{"x_min":47.078125,"x_max":283.078125,"ha":320,"o":"m 209 564 l 283 620 l 283 535 l 209 480 l 209 0 l 121 0 l 121 423 l 47 367 l 47 451 l 121 507 l 121 926 l 209 926 l 209 564 "},"¡":{"x_min":151.234375,"x_max":543.21875,"ha":694,"o":"m 299 769 l 151 945 l 245 945 l 347 821 l 449 945 l 543 945 l 395 769 l 299 769 "},"[":{"x_min":102,"x_max":332.8125,"ha":426,"o":"m 332 852 l 187 852 l 187 -153 l 332 -153 l 332 -227 l 102 -227 l 102 926 l 332 926 l 332 852 "},"L":{"x_min":111,"x_max":650.234375,"ha":673,"o":"m 204 926 l 204 79 l 650 79 l 650 0 l 111 0 l 111 926 l 204 926 "},";":{"x_min":102,"x_max":221,"ha":322,"o":"m 102 139 l 221 139 l 221 -11 q 102 -183 221 -162 l 102 -120 q 150 -73 136 -111 q 157 0 157 -53 l 102 0 l 102 139 m 102 672 l 220 672 l 220 533 l 102 533 l 102 672 "}," ":{"x_min":0,"x_max":0,"ha":416},"%":{"x_min":46,"x_max":901,"ha":947,"o":"m 200 931 q 355 689 355 931 q 325 533 355 594 q 200 454 287 454 q 75 532 112 454 q 46 692 46 594 q 75 852 46 792 q 200 931 113 931 m 200 875 q 115 692 115 875 q 200 510 115 510 q 286 690 286 510 q 200 875 286 875 m 800 926 l 214 0 l 147 0 l 733 926 l 800 926 m 746 472 q 901 230 901 472 q 871 74 901 135 q 746 -5 833 -5 q 621 73 658 -5 q 592 233 592 135 q 621 393 592 333 q 746 472 659 472 m 746 416 q 661 233 661 416 q 746 51 661 51 q 832 231 832 51 q 746 416 832 416 "},"P":{"x_min":111,"x_max":757,"ha":803,"o":"m 204 404 l 204 0 l 111 0 l 111 926 l 465 926 q 623 902 569 926 q 757 664 757 842 q 680 465 757 530 q 580 414 635 425 q 465 404 529 404 l 204 404 m 204 483 l 427 483 q 607 526 552 483 q 664 664 664 572 q 607 803 664 757 q 427 847 552 847 l 204 847 l 204 483 "},"À":{"x_min":111,"x_max":828.984375,"ha":892,"o":"m 204 420 l 204 0 l 111 0 l 111 926 l 500 926 q 657 903 603 926 q 791 683 791 847 q 738 523 791 584 q 645 459 705 487 q 724 402 694 436 q 765 253 765 352 l 765 132 q 779 59 765 87 q 828 0 795 30 l 705 0 q 680 105 680 46 l 680 211 q 645 348 670 305 q 576 408 621 392 q 491 420 545 420 l 204 420 m 204 493 l 483 493 q 610 512 569 493 q 683 585 658 535 q 701 670 701 623 q 648 802 701 754 q 581 838 618 830 q 483 847 538 847 l 204 847 l 204 493 m 389 998 l 484 1169 l 595 1169 l 456 998 l 389 998 "},"_":{"x_min":0,"x_max":694,"ha":694,"o":"m 0 -102 l 694 -102 l 694 -164 l 0 -164 l 0 -102 "},"ñ":{"x_min":102,"x_max":615,"ha":717,"o":"m 102 672 l 185 672 l 185 576 q 252 650 218 626 q 393 690 309 690 q 570 620 509 690 q 607 543 599 586 q 615 458 615 505 l 615 0 l 532 0 l 532 439 q 519 537 532 507 q 384 617 489 617 q 238 557 296 617 q 185 394 185 502 l 185 0 l 102 0 l 102 672 m 398 945 l 518 945 l 363 769 l 291 769 l 398 945 "},"+":{"x_min":35,"x_max":659,"ha":694,"o":"m 35 494 l 320 494 l 320 760 l 373 760 l 373 494 l 659 494 l 659 443 l 373 443 l 373 177 l 320 177 l 320 443 l 35 443 l 35 494 "},"‚":{"x_min":102.0625,"x_max":221,"ha":322,"o":"m 102 139 l 221 139 l 221 -11 q 102 -183 221 -162 l 102 -120 q 150 -73 136 -111 q 157 0 157 -53 l 102 0 l 102 139 "},"‑":{"x_min":0,"x_max":336,"ha":336,"o":"m 336 382 l 336 303 l 0 303 l 0 382 l 336 382 "},"½":{"x_min":196.671875,"x_max":645.609375,"ha":694,"o":"m 303 945 l 423 945 l 268 769 l 196 769 l 303 945 m 526 945 l 645 945 l 491 769 l 419 769 l 526 945 "},"Æ":{"x_min":72,"x_max":872.328125,"ha":925,"o":"m 859 664 l 763 664 q 702 780 745 734 q 487 868 620 868 q 306 812 382 868 q 192 643 228 755 q 165 458 165 560 q 245 173 165 282 q 352 86 285 117 q 485 57 412 57 q 728 186 642 57 q 781 332 768 246 l 872 332 q 801 135 854 213 q 483 -22 691 -22 q 166 128 276 -22 q 72 462 72 257 q 178 809 72 680 q 491 947 293 947 q 776 830 669 947 q 859 664 838 763 m 405 998 l 500 1169 l 611 1169 l 472 998 l 405 998 "},"":{"x_min":39,"x_max":758,"ha":795,"o":"m 742 926 l 742 847 l 162 79 l 758 79 l 758 0 l 39 0 l 39 56 l 632 847 l 106 847 l 106 926 l 742 926 m 349 996 l 201 1171 l 295 1171 l 397 1048 l 499 1171 l 593 1171 l 445 996 l 349 996 "},"Ë":{"x_min":111,"x_max":742.46875,"ha":799,"o":"m 730 926 l 730 847 l 204 847 l 204 512 l 687 512 l 687 439 l 204 439 l 204 79 l 742 79 l 742 0 l 111 0 l 111 926 l 730 926 m 292 1144 l 292 1024 l 190 1024 l 190 1144 l 292 1144 m 610 1144 l 610 1024 l 508 1024 l 508 1144 l 610 1144 "},"'":{"x_min":79,"x_max":164,"ha":244,"o":"m 164 556 l 79 556 l 79 926 l 164 926 l 164 556 "},"ª":{"x_min":38,"x_max":762,"ha":818,"o":"m 420 -18 l 380 -75 q 433 -69 413 -69 q 505 -89 477 -69 q 539 -156 539 -114 q 488 -241 539 -209 q 399 -263 454 -263 q 260 -231 332 -263 l 275 -197 q 390 -225 337 -225 q 453 -207 429 -225 q 479 -161 479 -188 q 449 -115 479 -131 q 406 -106 432 -106 q 341 -118 380 -106 l 317 -99 l 375 -15 q 157 46 239 -15 q 59 175 89 93 q 38 294 38 233 q 38 308 38 301 l 128 308 q 140 211 128 244 q 240 88 167 126 q 408 51 311 51 q 608 107 542 51 q 672 246 672 162 q 608 369 672 330 q 515 406 580 388 q 401 436 473 418 q 224 487 272 469 q 66 696 66 544 q 169 890 66 822 q 391 946 255 946 q 589 907 503 946 q 734 661 734 841 l 645 661 q 390 875 645 875 q 219 830 285 875 q 153 700 153 786 q 242 565 153 604 q 465 501 284 546 q 667 432 614 464 q 762 250 762 375 q 685 66 762 138 q 420 -18 596 -18 "},"˛":{"x_min":373,"x_max":581,"ha":695,"o":"m 448 0 l 500 0 q 423 -115 423 -57 q 463 -177 423 -157 q 519 -189 488 -189 q 581 -176 544 -189 l 581 -218 q 505 -233 538 -233 q 405 -199 442 -233 q 373 -123 373 -169 q 448 0 373 -59 "},"ð":{"x_min":64,"x_max":726,"ha":761,"o":"m 659 828 l 726 828 l 726 761 l 659 761 l 659 0 l 576 0 l 576 97 q 501 21 539 46 q 358 -19 439 -19 q 139 85 219 -19 q 64 336 64 182 q 135 578 64 482 q 358 690 218 690 q 576 572 492 690 l 576 761 l 344 761 l 344 828 l 576 828 l 576 926 l 659 926 l 659 828 m 361 616 q 204 542 263 616 q 147 335 147 469 q 206 124 147 198 q 361 54 264 54 q 516 124 458 54 q 576 331 576 198 q 518 542 576 469 q 361 616 459 616 "},"T":{"x_min":9,"x_max":691,"ha":700,"o":"m 397 847 l 397 0 l 304 0 l 304 847 l 9 847 l 9 926 l 691 926 l 691 847 l 397 847 "},"Þ":{"x_min":9,"x_max":691,"ha":700,"o":"m 397 847 l 397 0 l 304 0 l 304 847 l 9 847 l 9 926 l 691 926 l 691 847 l 397 847 m 387 -58 l 387 -157 q 358 -269 387 -229 q 318 -299 349 -280 q 294 -309 306 -305 l 294 -267 q 346 -173 346 -244 l 310 -173 l 310 -58 l 387 -58 "},"j":{"x_min":-13,"x_max":185,"ha":287,"o":"m 101 672 l 185 672 l 185 -38 q 176 -133 185 -111 q 114 -200 158 -181 q 39 -213 86 -213 l -13 -213 l -13 -146 l 18 -146 q 84 -124 67 -146 q 101 -32 101 -103 l 101 672 m 185 926 l 185 815 l 102 815 l 102 926 l 185 926 "},"1":{"x_min":180.703125,"x_max":485,"ha":777,"o":"m 485 926 l 485 0 l 395 0 l 395 694 l 180 694 l 180 754 q 349 793 297 754 q 415 926 407 836 l 485 926 "},"›":{"x_min":79,"x_max":304,"ha":369,"o":"m 79 570 l 304 379 l 304 304 l 79 112 l 79 212 l 236 341 l 79 471 l 79 570 "},"ä":{"x_min":59,"x_max":681.28125,"ha":713,"o":"m 180 467 l 91 467 q 145 619 91 566 q 358 690 216 690 q 550 632 483 690 q 606 488 606 584 l 606 111 q 641 54 606 54 q 681 62 654 54 l 681 -2 q 618 -12 643 -12 q 522 82 522 -12 q 522 98 522 87 q 280 -19 438 -19 q 126 24 185 -19 q 59 174 59 76 q 120 319 59 267 q 269 376 166 359 l 467 408 q 512 423 504 414 q 520 475 520 433 q 494 572 520 542 q 353 616 453 616 q 203 558 242 616 q 180 467 180 524 m 523 346 l 283 306 q 147 177 147 282 q 186 84 147 119 q 293 50 225 50 q 433 92 373 50 q 523 271 523 153 l 523 346 m 286 917 l 286 797 l 198 797 l 198 917 l 286 917 m 515 917 l 515 797 l 427 797 l 427 917 l 515 917 "},"<":{"x_min":46,"x_max":648,"ha":695,"o":"m 648 782 l 648 692 l 142 464 l 648 236 l 648 147 l 46 426 l 46 504 l 648 782 "},"£":{"x_min":47.25,"x_max":650.234375,"ha":673,"o":"m 204 474 l 454 663 l 454 570 l 204 382 l 204 79 l 650 79 l 650 0 l 111 0 l 111 321 l 47 273 l 47 366 l 111 414 l 111 926 l 204 926 l 204 474 "},"¹":{"x_min":46,"x_max":731,"ha":694,"o":"m 644 0 q 574 -103 574 -48 q 601 -159 574 -137 q 665 -179 626 -179 q 731 -164 692 -179 l 731 -210 q 650 -226 685 -226 q 554 -194 591 -226 q 520 -116 520 -165 q 594 0 520 -53 l 555 0 q 533 30 537 20 q 528 105 528 43 q 528 140 528 121 q 463 47 497 79 q 274 -18 390 -18 q 112 27 172 -18 q 46 175 46 77 q 164 351 46 303 q 362 374 221 374 q 482 396 457 388 q 520 427 513 407 q 526 475 526 444 q 509 557 526 525 q 448 610 493 590 q 350 629 406 629 q 162 463 180 629 l 88 463 q 156 627 88 570 q 352 685 226 685 q 560 615 492 685 q 603 518 597 578 q 606 466 606 499 l 606 306 l 606 201 q 608 62 606 91 q 623 22 611 37 q 644 0 629 15 m 526 370 q 482 342 505 350 q 318 330 453 330 q 177 279 221 316 q 131 173 131 242 q 174 73 131 110 q 297 37 217 37 q 478 123 415 37 q 526 266 526 188 l 526 370 "},"t":{"x_min":27,"x_max":315.4375,"ha":352,"o":"m 315 672 l 315 605 l 211 605 l 211 131 q 218 86 211 97 q 256 70 228 70 q 315 78 279 70 l 315 2 q 233 -9 265 -9 q 145 23 173 -9 q 122 123 122 50 l 122 605 l 27 605 l 27 672 l 122 672 l 122 868 l 211 868 l 211 672 l 315 672 "},"¬":{"x_min":45.9375,"x_max":647,"ha":694,"o":"m 560 0 l 560 303 l 45 303 l 45 382 l 647 382 l 647 0 l 560 0 "},"ù":{"x_min":102,"x_max":615,"ha":717,"o":"m 615 0 l 532 0 l 532 95 q 464 21 498 45 q 323 -19 407 -19 q 146 51 207 -19 q 109 128 117 85 q 102 213 102 166 l 102 672 l 185 672 l 185 232 q 197 134 185 164 q 255 71 213 92 q 332 54 289 54 q 478 114 420 54 q 532 277 532 169 l 532 672 l 615 672 l 615 0 m 359 991 q 441 957 407 991 q 475 873 475 923 q 441 792 475 826 q 359 759 407 759 q 276 792 310 759 q 243 875 243 827 q 276 957 243 923 q 359 991 311 991 m 359 940 q 312 921 331 940 q 294 875 294 902 q 312 828 294 848 q 358 810 331 810 q 405 828 386 810 q 424 874 424 847 q 405 921 424 902 q 359 940 385 940 "},"W":{"x_min":18.3125,"x_max":1142.03125,"ha":1160,"o":"m 366 0 l 262 0 l 18 926 l 113 926 l 246 378 l 265 301 q 314 99 292 187 q 344 220 322 128 l 365 301 l 385 378 l 527 926 l 634 926 l 779 386 l 803 300 q 858 99 840 160 l 866 132 l 885 218 l 905 300 l 922 378 l 1049 926 l 1142 926 l 910 0 l 805 0 l 640 599 l 622 671 q 578 828 587 800 q 555 734 572 802 l 536 659 l 516 584 l 366 0 "},"ï":{"x_min":64,"x_max":889,"ha":990,"o":"m 659 926 l 659 0 l 576 0 l 576 97 q 501 21 539 46 q 358 -19 439 -19 q 139 85 220 -19 q 64 336 64 182 q 135 578 64 482 q 358 690 218 690 q 576 572 492 690 l 576 926 l 659 926 m 361 616 q 204 542 263 616 q 147 335 147 469 q 206 124 147 198 q 361 54 264 54 q 516 124 458 54 q 576 331 576 198 q 518 542 576 469 q 361 616 459 616 m 770 926 l 889 926 l 889 775 q 770 603 889 624 l 770 666 q 818 713 804 675 q 825 787 825 733 l 770 787 l 770 926 "},"":{"x_min":9,"x_max":691,"ha":700,"o":"m 397 847 l 397 0 l 304 0 l 304 847 l 9 847 l 9 926 l 691 926 l 691 847 l 397 847 m 301 996 l 154 1171 l 248 1171 l 350 1048 l 452 1172 l 545 1172 l 397 996 l 301 996 "},">":{"x_min":47,"x_max":649,"ha":695,"o":"m 47 147 l 47 237 l 551 465 l 47 693 l 47 782 l 649 504 l 649 425 l 47 147 "},"v":{"x_min":9.5,"x_max":612.390625,"ha":622,"o":"m 354 0 l 265 0 l 9 672 l 105 672 l 234 316 l 257 255 q 314 100 297 143 q 348 195 328 138 q 392 316 364 239 l 519 672 l 612 672 l 354 0 "},"û":{"x_min":102,"x_max":657.046875,"ha":717,"o":"m 615 0 l 532 0 l 532 95 q 464 21 498 45 q 323 -19 407 -19 q 146 51 207 -19 q 109 128 117 85 q 102 213 102 166 l 102 672 l 185 672 l 185 232 q 197 134 185 164 q 255 71 213 92 q 332 54 289 54 q 478 114 420 54 q 532 277 532 169 l 532 672 l 615 672 l 615 0 m 315 945 l 434 945 l 280 769 l 208 769 l 315 945 m 538 945 l 657 945 l 502 769 l 430 769 l 538 945 "},"Ò":{"x_min":111,"x_max":822,"ha":933,"o":"m 822 0 l 726 0 l 191 814 q 191 554 191 728 l 191 441 l 191 0 l 111 0 l 111 926 l 207 926 l 741 115 q 741 496 741 282 l 741 926 l 822 926 l 822 0 m 418 996 l 270 1172 l 365 1172 l 466 1049 l 568 1172 l 662 1172 l 514 996 l 418 996 "},"&":{"x_min":79,"x_max":857.25,"ha":848,"o":"m 685 423 l 773 423 q 706 181 761 279 l 857 0 l 754 0 l 658 113 q 565 35 611 62 q 374 -14 482 -14 q 158 65 239 -14 q 79 264 79 145 q 173 468 79 389 q 297 546 222 509 q 247 617 261 597 q 208 741 208 676 q 275 884 208 830 q 414 931 334 931 q 554 875 500 931 q 604 748 604 825 q 527 587 604 653 q 425 524 489 554 l 651 250 q 685 423 685 317 m 377 581 q 392 588 384 584 q 515 745 515 650 q 487 820 515 790 q 409 852 457 852 q 326 818 359 852 q 297 744 297 787 q 328 651 297 704 q 360 602 343 626 q 377 581 377 581 m 347 486 q 172 262 172 410 q 232 120 172 176 q 383 65 292 65 q 604 178 508 65 l 347 486 "},"˝":{"x_min":196.671875,"x_max":645.609375,"ha":694,"o":"m 303 945 l 423 945 l 268 769 l 196 769 l 303 945 m 526 945 l 645 945 l 491 769 l 419 769 l 526 945 "},"Ð":{"x_min":48,"x_max":849,"ha":921,"o":"m 111 439 l 48 439 l 48 512 l 111 512 l 111 926 l 449 926 q 690 864 604 926 q 827 646 787 794 q 849 466 849 564 q 752 131 849 261 q 616 27 695 55 q 429 0 540 0 l 111 0 l 111 439 m 204 439 l 204 79 l 409 79 q 618 122 553 79 q 757 464 757 216 q 675 760 757 663 q 601 818 642 799 q 443 847 540 847 l 204 847 l 204 512 l 466 512 l 466 439 l 204 439 "},"I":{"x_min":111,"x_max":204,"ha":315,"o":"m 204 926 l 204 0 l 111 0 l 111 926 l 204 926 "},"G":{"x_min":72,"x_max":885,"ha":983,"o":"m 494 472 l 885 472 l 885 0 l 811 0 l 811 153 q 712 48 763 85 q 490 -21 618 -21 q 162 143 276 -21 q 72 460 72 272 q 188 812 72 680 q 506 947 308 947 q 735 883 640 947 q 876 653 851 805 l 786 653 q 730 773 768 726 q 507 868 650 868 q 259 760 354 868 q 165 466 165 651 q 242 191 165 302 q 500 58 335 58 q 700 129 616 58 q 798 398 798 214 l 494 398 l 494 472 "},"`":{"x_min":178.359375,"x_max":404.859375,"ha":694,"o":"m 297 945 l 404 769 l 332 769 l 178 945 l 297 945 "},"·":{"x_min":102,"x_max":220,"ha":322,"o":"m 102 412 l 220 412 l 220 273 l 102 273 l 102 412 "},"r":{"x_min":102,"x_max":399.984375,"ha":434,"o":"m 102 672 l 182 672 l 182 551 q 267 654 219 626 q 372 681 311 681 q 399 679 384 681 l 399 596 q 380 596 389 596 q 229 515 286 596 q 185 353 185 453 l 185 0 l 102 0 l 102 672 "},"‒":{"x_min":85,"x_max":691,"ha":777,"o":"m 691 382 l 691 303 l 85 303 l 85 382 l 691 382 "},"¿":{"x_min":40,"x_max":576,"ha":600,"o":"m 576 72 l 576 0 l 40 0 l 40 61 l 455 600 l 70 600 l 70 672 l 559 672 l 559 607 l 146 72 l 576 72 m 344 917 l 344 797 l 255 797 l 255 917 l 344 917 "},"":{"x_min":40,"x_max":576,"ha":600,"o":"m 576 72 l 576 0 l 40 0 l 40 61 l 455 600 l 70 600 l 70 672 l 559 672 l 559 607 l 146 72 l 576 72 m 252 769 l 103 945 l 198 945 l 300 821 l 403 945 l 495 945 l 348 769 l 252 769 "},"ý":{"x_min":9.765625,"x_max":605.1875,"ha":614,"o":"m 9 672 l 99 672 l 258 253 q 308 91 295 156 q 361 254 321 157 l 517 672 l 605 672 l 308 -87 q 245 -195 276 -167 q 140 -231 207 -231 q 83 -224 116 -231 l 83 -152 q 129 -157 111 -157 q 194 -131 170 -157 q 228 -70 211 -112 l 264 18 l 9 672 m 347 945 l 466 945 l 312 769 l 240 769 l 347 945 "},"x":{"x_min":4.75,"x_max":614.421875,"ha":618,"o":"m 358 350 l 614 0 l 513 0 l 308 287 l 106 0 l 4 0 l 262 350 l 31 672 l 131 672 l 310 417 l 491 672 l 592 672 l 358 350 "},"è":{"x_min":64,"x_max":640.71875,"ha":688,"o":"m 636 463 l 553 463 q 504 563 541 526 q 366 616 450 616 q 199 533 257 616 q 147 340 147 458 q 198 143 147 219 q 274 77 227 102 q 369 56 318 56 q 524 136 471 56 q 560 235 549 174 l 640 235 q 572 72 624 135 q 365 -19 496 -19 q 139 83 221 -19 q 64 333 64 179 q 140 582 64 486 q 370 690 225 690 q 580 599 504 690 q 636 463 626 544 m 296 769 l 147 945 l 242 945 l 343 821 l 446 945 l 539 945 l 391 769 l 296 769 "},"º":{"x_min":39,"x_max":590,"ha":633,"o":"m 335 -14 l 294 -73 q 348 -67 325 -67 q 402 -78 379 -67 q 449 -152 449 -103 q 400 -234 449 -205 q 312 -256 364 -256 q 179 -225 247 -256 l 194 -191 q 307 -219 253 -219 q 375 -195 350 -219 q 393 -156 393 -178 q 369 -113 393 -130 q 323 -101 352 -101 q 258 -115 294 -101 l 235 -96 l 293 -15 q 123 38 191 -15 q 39 228 39 102 l 121 228 q 317 40 121 40 q 454 76 405 40 q 508 178 508 117 q 480 247 508 222 q 409 288 452 275 q 311 313 367 300 q 133 369 181 343 q 60 500 60 411 q 145 648 60 598 q 312 684 206 684 q 524 608 457 684 q 569 473 569 561 l 492 473 q 470 562 492 530 q 309 629 428 629 q 174 584 218 629 q 142 506 142 553 q 163 444 142 467 q 230 404 187 417 q 344 375 274 390 q 506 323 456 349 q 590 180 590 279 q 541 56 590 108 q 335 -14 473 -14 "},"Ø":{"x_min":111,"x_max":828.984375,"ha":892,"o":"m 204 420 l 204 0 l 111 0 l 111 926 l 500 926 q 657 903 603 926 q 791 683 791 847 q 738 523 791 584 q 645 459 705 487 q 724 402 694 436 q 765 253 765 352 l 765 132 q 779 59 765 87 q 828 0 795 30 l 705 0 q 680 105 680 46 l 680 211 q 645 348 670 305 q 576 408 621 392 q 491 420 545 420 l 204 420 m 204 493 l 483 493 q 610 512 569 493 q 683 585 658 535 q 701 670 701 623 q 648 802 701 754 q 581 838 618 830 q 483 847 538 847 l 204 847 l 204 493 m 398 996 l 250 1171 l 344 1171 l 446 1048 l 548 1172 l 642 1172 l 494 996 l 398 996 "},"÷":{"x_min":35,"x_max":659,"ha":694,"o":"m 35 494 l 659 494 l 659 443 l 35 443 l 35 494 m 347 778 q 382 763 367 778 q 397 728 397 748 q 382 692 397 707 q 347 678 367 678 q 312 692 326 678 q 297 728 297 707 q 311 763 297 748 q 347 778 326 778 m 347 259 q 382 243 367 259 q 397 208 397 229 q 382 173 397 188 q 347 159 367 159 q 312 173 326 159 q 297 209 297 188 q 311 243 297 229 q 347 259 326 259 "},"h":{"x_min":102,"x_max":619,"ha":721,"o":"m 102 0 l 102 926 l 185 926 l 185 585 q 393 690 256 690 q 576 614 515 690 q 619 447 619 561 l 619 0 l 536 0 l 536 434 q 509 558 536 519 q 383 616 471 616 q 244 561 301 616 q 185 411 185 504 l 185 0 l 102 0 "},".":{"x_min":102,"x_max":220,"ha":322,"o":"m 102 139 l 220 139 l 220 0 l 102 0 l 102 139 "},";":{"x_min":102,"x_max":221,"ha":322,"o":"m 102 139 l 221 139 l 221 -11 q 102 -183 221 -162 l 102 -120 q 150 -73 136 -111 q 157 0 157 -53 l 102 0 l 102 139 m 102 672 l 220 672 l 220 533 l 102 533 l 102 672 "},"f":{"x_min":24,"x_max":320,"ha":348,"o":"m 320 672 l 320 605 l 208 605 l 208 0 l 120 0 l 120 605 l 24 605 l 24 672 l 120 672 l 120 784 q 155 901 120 866 q 272 937 193 937 q 320 934 296 937 l 320 860 q 285 864 300 864 q 229 849 247 864 q 208 776 208 834 l 208 672 l 320 672 "},"“":{"x_min":102,"x_max":437.609375,"ha":538,"o":"m 437 604 l 319 604 l 319 754 q 437 926 319 905 l 437 863 q 389 816 403 854 q 382 743 382 796 l 437 743 l 437 604 m 220 604 l 102 604 l 102 754 q 220 926 102 905 l 220 863 q 172 816 186 854 q 165 743 165 796 l 220 743 l 220 604 "},"A":{"x_min":18.3125,"x_max":838.890625,"ha":857,"o":"m 630 292 l 222 292 l 113 0 l 18 0 l 377 926 l 473 926 l 838 0 l 743 0 l 630 292 m 600 365 l 422 830 l 250 365 l 600 365 "},"6":{"x_min":82,"x_max":696,"ha":778,"o":"m 677 699 l 586 699 q 547 800 578 762 q 415 857 499 857 q 220 719 281 857 q 171 471 171 607 q 171 441 171 459 q 244 529 206 499 q 416 587 318 587 q 617 505 538 587 q 696 290 696 424 q 623 81 696 165 q 398 -18 538 -18 q 170 89 253 -18 q 82 429 82 204 q 166 798 82 661 q 274 900 206 863 q 416 936 339 936 q 624 840 547 936 q 677 699 668 785 m 402 508 q 244 432 303 508 q 197 287 197 371 q 244 136 197 198 q 402 61 303 61 q 542 119 488 61 q 599 284 599 180 q 542 449 599 388 q 402 508 489 508 "},"‘":{"x_min":102,"x_max":220.609375,"ha":321,"o":"m 220 604 l 102 604 l 102 754 q 220 926 102 905 l 220 863 q 172 816 186 854 q 165 743 165 796 l 220 743 l 220 604 "},"O":{"x_min":72,"x_max":930,"ha":1003,"o":"m 499 947 q 822 801 702 947 q 930 456 930 670 q 822 124 930 255 q 500 -22 702 -22 q 179 124 299 -22 q 72 462 72 255 q 179 801 72 668 q 499 947 299 947 m 499 868 q 316 810 399 868 q 165 462 165 705 q 248 177 165 285 q 369 84 295 116 q 501 57 432 57 q 686 114 603 57 q 811 290 774 175 q 837 457 837 367 q 753 747 837 639 q 632 840 706 808 q 499 868 569 868 "},"n":{"x_min":102,"x_max":615,"ha":717,"o":"m 102 672 l 185 672 l 185 576 q 252 650 218 626 q 393 690 309 690 q 570 620 509 690 q 607 543 599 586 q 615 458 615 505 l 615 0 l 532 0 l 532 439 q 519 537 532 507 q 384 617 489 617 q 238 557 296 617 q 185 394 185 502 l 185 0 l 102 0 l 102 672 "},"3":{"x_min":85,"x_max":692,"ha":777,"o":"m 321 452 l 321 521 q 368 521 351 521 q 519 567 468 521 q 573 693 573 615 q 518 814 573 769 q 388 857 467 857 q 220 768 269 857 q 197 658 197 725 q 197 647 197 655 l 108 647 q 160 829 108 758 q 389 936 236 936 q 575 877 501 936 q 661 693 661 808 q 531 493 661 565 q 692 268 692 429 q 604 60 692 142 q 386 -18 520 -18 q 135 99 220 -18 q 85 276 85 168 l 177 276 q 217 136 177 190 q 290 80 244 101 q 389 61 336 61 q 547 124 488 61 q 599 259 599 178 q 527 411 599 359 q 371 452 470 452 q 321 452 357 452 "},"9":{"x_min":82,"x_max":696,"ha":778,"o":"m 99 219 l 190 219 q 229 117 198 154 q 362 61 277 61 q 556 198 495 61 q 606 446 606 310 q 606 475 606 455 q 532 387 570 417 q 360 330 459 330 q 160 412 239 330 q 82 627 82 493 q 153 836 82 752 q 379 936 239 936 q 607 828 524 936 q 696 488 696 713 q 611 119 696 256 q 503 17 571 54 q 361 -18 438 -18 q 153 77 230 -18 q 99 219 109 132 m 375 857 q 235 798 289 857 q 179 633 179 737 q 235 467 179 528 q 375 409 289 409 q 532 484 474 409 q 580 630 580 546 q 532 781 580 719 q 375 857 475 857 "},"l":{"x_min":102,"x_max":190.15625,"ha":292,"o":"m 190 926 l 190 0 l 102 0 l 102 926 l 190 926 "},"¤":{"x_min":97.671875,"x_max":851.328125,"ha":948,"o":"m 101 151 l 226 279 q 156 476 156 370 q 197 626 156 554 q 227 670 208 643 l 97 798 l 147 848 l 276 719 q 337 758 312 745 q 474 792 400 792 q 626 749 555 792 q 670 720 644 739 l 800 848 l 849 798 l 721 671 q 793 473 793 576 q 752 324 793 395 q 723 279 742 307 l 851 152 l 802 102 l 674 229 q 478 159 582 159 q 276 229 382 159 l 149 102 l 101 151 m 477 715 q 306 644 375 715 q 237 475 237 574 q 306 307 237 377 q 474 238 375 238 q 642 307 572 238 q 712 475 712 377 q 642 644 712 576 q 477 715 571 715 "},"4":{"x_min":81,"x_max":704,"ha":779,"o":"m 489 229 l 81 229 l 81 303 l 498 917 l 574 917 l 574 303 l 704 303 l 704 229 l 574 229 l 574 0 l 489 0 l 489 229 m 490 303 l 490 507 q 490 787 490 701 l 478 764 l 438 703 q 351 572 398 642 l 172 303 l 490 303 "},"p":{"x_min":102,"x_max":695,"ha":759,"o":"m 102 672 l 185 672 l 185 575 q 255 647 220 622 q 404 690 319 690 q 621 588 541 690 q 695 344 695 494 q 623 95 695 194 q 526 11 584 41 q 402 -18 468 -18 q 257 24 319 -18 q 185 98 225 47 l 185 -213 l 102 -213 l 102 672 m 398 616 q 237 535 294 616 q 185 340 185 460 q 237 136 185 212 q 398 55 294 55 q 559 136 502 55 q 612 336 612 212 q 559 535 612 461 q 398 616 501 616 "},"‡":{"x_min":56,"x_max":660,"ha":716,"o":"m 400 602 l 660 602 l 660 523 l 400 523 l 400 190 l 660 190 l 660 111 l 400 111 l 400 -213 l 317 -213 l 317 111 l 56 111 l 56 190 l 317 190 l 317 523 l 56 523 l 56 602 l 317 602 l 317 926 l 400 926 l 400 602 "},"à":{"x_min":102,"x_max":399.984375,"ha":434,"o":"m 102 672 l 182 672 l 182 551 q 267 654 219 626 q 372 681 311 681 q 399 679 384 681 l 399 596 q 380 596 389 596 q 229 515 286 596 q 185 353 185 453 l 185 0 l 102 0 l 102 672 m 256 944 l 376 944 l 221 769 l 149 769 l 256 944 "},"Ü":{"x_min":111,"x_max":795,"ha":906,"o":"m 702 926 l 795 926 l 795 327 q 764 150 795 213 q 623 17 720 60 q 453 -15 549 -15 q 191 80 286 -15 q 122 205 137 134 q 111 327 111 257 l 111 926 l 204 926 l 204 319 q 253 144 204 202 q 453 64 322 64 q 652 144 583 64 q 702 319 702 202 l 702 926 m 344 1144 l 344 1024 l 242 1024 l 242 1144 l 344 1144 m 663 1144 l 663 1024 l 561 1024 l 561 1144 l 663 1144 "},"ó":{"x_min":64,"x_max":682.15625,"ha":746,"o":"m 372 690 q 594 595 509 690 q 682 331 682 498 q 594 76 682 173 q 373 -19 510 -19 q 151 76 236 -19 q 64 335 64 173 q 151 595 64 497 q 372 690 235 690 m 372 617 q 251 579 305 617 q 168 454 193 537 q 152 335 152 399 q 205 140 152 218 q 290 71 236 94 q 373 54 328 54 q 494 92 441 54 q 577 217 551 134 q 594 332 594 272 q 541 531 594 454 q 372 617 482 617 m 413 945 l 532 945 l 377 769 l 305 769 l 413 945 "}}}
